<svg width="1200" height="630" viewBox="0 0 1200 630" xmlns="http://www.w3.org/2000/svg">
  <rect width="1200" height="630" fill="#070f1f"/>

  <line x1="880" y1="315" x2="880" y2="145" stroke="#26314d" stroke-width="1.5"/>
  <line x1="880" y1="315" x2="1070" y2="230" stroke="#26314d" stroke-width="1.5"/>
  <line x1="880" y1="315" x2="1070" y2="400" stroke="#26314d" stroke-width="1.5"/>
  <line x1="880" y1="315" x2="880" y2="485" stroke="#26314d" stroke-width="1.5"/>
  <line x1="880" y1="315" x2="690" y2="400" stroke="#26314d" stroke-width="1.5"/>
  <line x1="880" y1="315" x2="690" y2="230" stroke="#26314d" stroke-width="1.5"/>

  <circle cx="880" cy="145" r="5" fill="#c8001e"/>
  <circle cx="1070" cy="230" r="5" fill="#c8001e"/>
  <circle cx="1070" cy="400" r="5" fill="#c8001e"/>
  <circle cx="880" cy="485" r="5" fill="#c8001e"/>
  <circle cx="690" cy="400" r="5" fill="#c8001e"/>
  <circle cx="690" cy="230" r="5" fill="#c8001e"/>

  <circle cx="880" cy="315" r="38" fill="#152244" stroke="#c8001e" stroke-width="1.5"/>
  <text x="880" y="322" font-family="Georgia, serif" font-size="17" fill="#E7E9EE" text-anchor="middle">RCG</text>

  <text x="100" y="225" font-family="Arial, sans-serif" font-size="16" letter-spacing="2.5" fill="#8894A6">SECURITY &#183; SMART CITY &#183; PUBLIC SAFETY &#183; DEFENCE</text>

  <text x="97" y="300" font-family="Georgia, serif" font-size="58" fill="#ffffff">RCG <tspan font-style="italic" fill="#c8001e">Advanced</tspan></text>

  <text x="100" y="358" font-family="Georgia, serif" font-size="27" fill="#E7E9EE">Global independent technology intermediary</text>
  <text x="100" y="395" font-family="Georgia, serif" font-size="27" fill="#E7E9EE">for security, smart city, public safety</text>
  <text x="100" y="432" font-family="Georgia, serif" font-size="27" fill="#E7E9EE">and defence organisations.</text>
</svg>
